<svg xmlns="http://www.w3.org/2000/svg" width="255" height="192" viewBox="0 0 255 192" version="1.1"><path d="M 98.500 5.389 L 72.500 10.546 72.274 36.023 C 72.068 59.360, 71.861 62.062, 69.819 68.188 L 67.588 74.876 69.445 84.188 C 70.467 89.310, 71.572 98.445, 71.901 104.490 C 72.413 113.879, 72.755 115.528, 74.250 115.813 C 75.802 116.109, 76.002 115.205, 76.018 107.823 C 76.029 103.245, 75.032 93.955, 73.804 87.177 L 71.570 74.854 73.785 68.677 C 75.841 62.945, 76 60.757, 76 38.317 C 76 16.150, 76.146 14.092, 77.750 13.618 C 82.181 12.309, 127.041 4.002, 129.608 4.015 C 132.682 4.030, 182.790 13.457, 183.483 14.150 C 184.122 14.789, 189 46.388, 189 49.889 C 189 51.609, 187.875 57.778, 186.500 63.597 C 183.480 76.380, 182.887 95, 185.500 95 C 186.715 95, 187 93.396, 187 86.564 C 187 80.663, 187.902 74.332, 190 65.500 C 191.650 58.555, 192.989 51.439, 192.976 49.686 C 192.936 44.505, 187.421 12.017, 186.420 11.066 C 185.136 9.846, 132.596 -0.026, 128.141 0.116 C 126.138 0.180, 112.800 2.552, 98.500 5.389 M 104 13.431 L 80.500 17.607 79.991 42.553 C 79.593 62.052, 79.136 68.374, 77.897 71.500 C 76.435 75.189, 76.451 76.201, 78.095 84.500 C 79.341 90.786, 79.897 98.407, 79.939 109.771 C 79.999 125.671, 80.051 126.065, 82.250 126.990 C 86.494 128.776, 127.755 141, 129.540 141 C 130.522 141, 142.052 137.782, 155.163 133.848 L 179 126.696 179.040 102.598 C 179.077 79.886, 179.238 77.818, 181.842 66.650 L 184.604 54.801 182.045 36.755 C 180.209 23.806, 179.064 18.475, 177.993 17.880 C 176.601 17.107, 129.563 8.848, 128.146 9.127 C 127.791 9.197, 116.925 11.134, 104 13.431 M 110.750 15.799 C 102.638 17.221, 96 18.658, 96 18.992 C 96 19.326, 103.562 20.749, 112.805 22.154 L 129.610 24.708 146.805 22.127 C 156.262 20.707, 164 19.294, 164 18.986 C 164 18.277, 131.352 12.932, 128 13.093 C 126.625 13.159, 118.862 14.377, 110.750 15.799 M 84 42.540 C 84 62.045, 83.786 64.882, 81.930 69.972 L 79.860 75.649 81.930 86.375 C 83.385 93.915, 84 101.072, 84 110.469 L 84 123.837 90.250 125.859 C 93.688 126.971, 103.943 130.146, 113.041 132.916 L 129.581 137.951 143.041 133.909 C 150.443 131.685, 160.887 128.527, 166.250 126.890 L 176 123.914 176 100.385 C 176 78.685, 176.200 75.989, 178.567 65.710 L 181.133 54.565 178.917 38.850 C 177.698 30.206, 176.431 22.708, 176.100 22.187 C 175.738 21.616, 166.566 22.623, 153 24.723 L 130.500 28.206 108.500 24.957 C 96.400 23.170, 85.938 21.500, 85.250 21.247 C 84.274 20.887, 84 25.558, 84 42.540 M 89.336 37.567 C 89.005 38.429, 89.247 39.647, 89.874 40.274 C 91.282 41.682, 94.616 38.806, 93.559 37.096 C 92.561 35.481, 90.028 35.764, 89.336 37.567 M 127.688 36.646 C 127.309 37.024, 127 58.128, 127 83.544 C 127 123.237, 127.210 129.929, 128.488 130.990 C 129.679 131.978, 130.081 131.953, 130.499 130.863 C 130.786 130.113, 130.904 108.612, 130.761 83.083 C 130.511 38.575, 130.216 34.118, 127.688 36.646 M 140.336 37.567 C 140.005 38.429, 140.247 39.647, 140.874 40.274 C 142.282 41.682, 145.616 38.806, 144.559 37.096 C 143.561 35.481, 141.028 35.764, 140.336 37.567 M 110.853 37.659 C 109.947 37.906, 108.970 39.008, 108.682 40.109 C 108.219 41.879, 108.583 42.076, 111.829 41.806 C 114.722 41.565, 115.500 41.079, 115.500 39.514 C 115.500 37.502, 113.851 36.844, 110.853 37.659 M 160.625 38.518 C 158.041 41.102, 158.713 42.144, 162.750 41.810 C 165.730 41.564, 166.500 41.089, 166.500 39.500 C 166.500 36.929, 162.828 36.315, 160.625 38.518 M 101.210 53.239 C 98.458 54.564, 98.698 57.382, 101.598 57.798 C 104.079 58.154, 106.457 55.634, 105.643 53.513 C 104.972 51.764, 104.351 51.725, 101.210 53.239 M 152.176 53.059 C 149.291 54.215, 149.635 57.373, 152.693 57.811 C 154.984 58.138, 157.609 54.795, 156.487 52.979 C 155.770 51.818, 155.246 51.828, 152.176 53.059 M 111.500 64 C 111.160 64.550, 111.359 65, 111.941 65 C 112.523 65, 113 65.605, 113 66.345 C 113 67.085, 113.891 68.496, 114.979 69.481 C 116.782 71.112, 117.014 71.126, 117.586 69.638 C 117.970 68.636, 117.300 67.041, 115.856 65.519 C 113.267 62.789, 112.429 62.497, 111.500 64 M 162.600 63.837 C 162.316 64.298, 163.377 66.211, 164.959 68.087 C 167.435 71.026, 167.930 71.257, 168.524 69.752 C 168.978 68.599, 168.409 67.156, 166.856 65.519 C 164.339 62.865, 163.425 62.504, 162.600 63.837 M 0.298 75.250 C 2.181 107.433, 19.030 140.342, 44.629 161.835 C 60.238 174.941, 76.245 183.205, 96.779 188.759 C 105.826 191.206, 107.956 191.389, 127.500 191.389 C 147.044 191.389, 149.174 191.206, 158.221 188.759 C 192.162 179.579, 218.273 160.487, 236.419 131.584 C 244.771 118.281, 252.083 98.653, 253.648 85.334 C 253.997 82.370, 254.669 79.705, 255.141 79.413 C 255.613 79.121, 256 75.576, 256 71.535 C 256 64.870, 255.828 64.232, 254.144 64.673 C 252.579 65.082, 252.191 66.528, 251.668 73.902 C 247.910 126.836, 210.494 171.423, 158.227 185.252 C 147.078 188.201, 145.564 188.354, 127.500 188.354 C 109.436 188.354, 107.922 188.201, 96.773 185.252 C 44.470 171.414, 7.090 126.840, 3.327 73.823 C 2.837 66.923, 2.373 65, 1.200 65 C -0.076 65, -0.211 66.536, 0.298 75.250 M 0.343 72.500 C 0.346 76.900, 0.522 78.576, 0.733 76.224 C 0.945 73.872, 0.942 70.272, 0.727 68.224 C 0.512 66.176, 0.339 68.100, 0.343 72.500 M 101.169 74.151 C 101.353 75.445, 102.314 76.635, 103.331 76.829 C 104.749 77.099, 105.088 76.652, 104.831 74.849 C 104.647 73.555, 103.686 72.365, 102.669 72.171 C 101.251 71.901, 100.912 72.348, 101.169 74.151 M 151.591 72.853 C 151.301 73.322, 151.694 74.559, 152.465 75.603 C 153.545 77.066, 154.140 77.230, 155.065 76.317 C 155.726 75.667, 155.995 74.429, 155.664 73.567 C 155.021 71.891, 152.463 71.442, 151.591 72.853 M 90.223 80.557 C 89 81.413, 88 82.538, 88 83.057 C 88 84.715, 92.629 84.067, 94.347 82.169 C 97.180 79.038, 94.106 77.837, 90.223 80.557 M 140.861 80.914 C 139.562 81.967, 138.846 83.175, 139.270 83.600 C 140.484 84.819, 145.445 82.643, 145.814 80.729 C 146.257 78.425, 143.819 78.516, 140.861 80.914 M 115 84.378 C 115 86.074, 117.441 88.226, 118.342 87.325 C 119.827 85.840, 118.946 83, 117 83 C 115.900 83, 115 83.620, 115 84.378 M 166 84.893 C 166 86.792, 168.283 88.384, 169.402 87.264 C 170.837 85.830, 169.907 83, 168 83 C 166.704 83, 166 83.667, 166 84.893 M 95.441 96.096 C 94.384 97.806, 97.718 100.682, 99.126 99.274 C 99.753 98.647, 99.995 97.429, 99.664 96.567 C 98.972 94.764, 96.439 94.481, 95.441 96.096 M 146 96.378 C 146 97.135, 146.709 98.344, 147.576 99.063 C 148.877 100.143, 149.298 100.136, 149.984 99.026 C 150.441 98.287, 150.583 97.078, 150.300 96.341 C 149.623 94.575, 146 94.606, 146 96.378 M 108.408 100.378 C 107.599 102.487, 108.735 104, 111.129 104 C 112.639 104, 113.060 103.443, 112.820 101.760 C 112.447 99.146, 109.264 98.149, 108.408 100.378 M 159.408 100.378 C 158.599 102.487, 159.735 104, 162.129 104 C 163.639 104, 164.060 103.443, 163.820 101.760 C 163.447 99.146, 160.264 98.149, 159.408 100.378 M 93.536 117.607 C 91.527 119.616, 91.932 121.061, 94.801 122.122 C 96.749 122.843, 97 122.603, 97 120.027 C 97 116.412, 95.664 115.479, 93.536 117.607 M 144.536 117.607 C 142.485 119.658, 143.021 121.406, 145.828 121.820 C 147.565 122.075, 148 121.637, 148 119.629 C 148 116.383, 146.586 115.557, 144.536 117.607" stroke="none" fill="#fffcfc" fill-rule="evenodd"/><path d="" stroke="none" fill="#fcfcfc" fill-rule="evenodd"/></svg>