<svg xmlns="http://www.w3.org/2000/svg" width="255" height="224" viewBox="0 0 255 224" version="1.1"><path d="M 125.571 1.571 C 124.308 2.835, 124 5.630, 124 15.833 L 124 28.524 89.866 45.512 C 71.092 54.855, 55.117 63.095, 54.366 63.821 C 53.364 64.790, 53.001 68.259, 53.004 76.821 C 53.008 89.562, 54.162 93.094, 59.452 96.561 L 62 98.230 62 123.915 C 62 142.559, 62.329 149.929, 63.200 150.800 C 64.935 152.535, 193.065 152.535, 194.800 150.800 C 195.671 149.929, 196 142.559, 196 123.915 L 196 98.230 198.548 96.561 C 203.838 93.094, 204.992 89.562, 204.996 76.821 C 204.999 68.259, 204.636 64.790, 203.634 63.821 C 202.883 63.095, 186.908 54.855, 168.134 45.512 C 149.360 36.168, 134 28.181, 134 27.762 C 134 27.343, 136.039 27, 138.532 27 C 149.968 27, 159.918 17.466, 159.978 6.450 C 159.990 4.222, 159.460 1.860, 158.800 1.200 C 157.972 0.372, 152.883 0, 142.371 0 C 129.861 0, 126.862 0.280, 125.571 1.571 M 127.778 16.750 L 127.500 30.500 91.751 48.500 L 56.002 66.500 56.016 76.500 C 56.031 87.705, 56.968 90.493, 61.728 93.498 L 64.899 95.500 65.199 122 L 65.500 148.500 129 148.500 L 192.500 148.500 192.801 122 L 193.101 95.500 196.272 93.498 C 201.032 90.493, 201.969 87.705, 201.984 76.500 L 201.998 66.500 166.249 48.500 C 130.940 30.721, 130.496 30.460, 130.187 27.250 L 129.873 24 135.687 23.978 C 145.829 23.940, 153.514 18.691, 156.109 10.030 C 158.165 3.168, 157.829 3, 142.060 3 L 128.056 3 127.778 16.750 M 130.667 6.667 C 130.300 7.033, 130 10.459, 130 14.280 L 130 21.226 136.968 20.832 C 146.102 20.316, 151.801 16.167, 153.563 8.750 L 154.217 6 142.775 6 C 136.482 6, 131.033 6.300, 130.667 6.667 M 134 14 C 134 18.435, 134.790 18.781, 140.917 17.024 C 144.271 16.062, 149 12.436, 149 10.826 C 149 10.372, 145.625 10, 141.500 10 L 134 10 134 14 M 117.110 49.853 C 110.999 58.023, 106 64.998, 106 65.353 C 106 65.709, 116.350 66, 129 66 C 141.650 66, 152 65.709, 152 65.353 C 152 64.257, 129.830 35, 129 35 C 128.571 35, 123.220 41.684, 117.110 49.853 M 93.750 50.610 C 77.938 58.528, 65 65.230, 65 65.503 C 65 65.777, 73.224 66, 83.276 66 L 101.553 66 112.407 51.464 C 118.377 43.469, 123.090 36.767, 122.881 36.571 C 122.671 36.374, 109.563 42.692, 93.750 50.610 M 135 36.636 C 135 36.989, 139.826 43.740, 145.724 51.639 L 156.447 66 174.724 66 C 184.776 66, 193 65.777, 193 65.503 C 193 65.230, 179.950 58.479, 164 50.500 C 148.050 42.521, 135 36.282, 135 36.636 M 121 50.192 C 116.875 55.759, 113.350 60.693, 113.167 61.157 C 112.983 61.621, 120.108 62, 129 62 C 137.892 62, 145.017 61.621, 144.833 61.157 C 144.252 59.687, 129.523 40.070, 129 40.070 C 128.725 40.070, 125.125 44.625, 121 50.192 M 95 54 L 79.500 61.895 90 61.926 L 100.500 61.957 103.173 58.229 C 104.643 56.178, 107.269 52.587, 109.009 50.250 C 110.749 47.913, 111.797 46.024, 111.337 46.053 C 110.876 46.082, 103.525 49.658, 95 54 M 148.991 50.250 C 150.731 52.587, 153.357 56.178, 154.827 58.229 L 157.500 61.957 168 61.926 L 178.500 61.895 163 54 C 154.475 49.658, 147.124 46.082, 146.663 46.053 C 146.203 46.024, 147.251 47.913, 148.991 50.250 M 59 77.865 C 59 88.478, 60.848 92, 66.418 92 C 69.986 92, 72.253 90.095, 73.929 85.688 C 75.050 82.739, 77 82.864, 77 85.885 C 77 88.599, 81.249 92, 84.640 92 C 87.913 92, 91.554 88.855, 92.164 85.500 C 92.623 82.972, 94.387 83.019, 94.850 85.571 C 95.461 88.941, 99.110 92, 102.519 92 C 105.980 92, 108.271 90.048, 109.929 85.688 C 111.079 82.661, 113 82.893, 113 86.059 C 113 88.877, 116.563 92, 119.777 92 C 123.372 92, 126.778 89.581, 127.182 86.741 C 127.595 83.831, 130.405 83.831, 130.818 86.741 C 131.222 89.581, 134.628 92, 138.223 92 C 141.437 92, 145 88.877, 145 86.059 C 145 82.893, 146.921 82.661, 148.071 85.688 C 149.729 90.048, 152.020 92, 155.481 92 C 158.917 92, 162.539 88.936, 163.164 85.500 C 163.364 84.400, 163.965 83.500, 164.500 83.500 C 165.035 83.500, 165.636 84.400, 165.836 85.500 C 166.459 88.926, 170.083 92, 173.500 92 C 176.903 92, 181 88.583, 181 85.745 C 181 82.841, 182.975 82.805, 184.071 85.688 C 185.747 90.095, 188.014 92, 191.582 92 C 197.152 92, 199 88.478, 199 77.865 L 199 69 129 69 L 59 69 59 77.865 M 63 79.378 C 63 84.607, 63.423 87.106, 64.452 87.960 C 66.596 89.739, 69.903 88.254, 70.636 85.183 C 71.530 81.436, 72.877 80, 75.500 80 C 78.123 80, 79.470 81.436, 80.364 85.183 C 81.516 90.010, 87.493 89.978, 88.647 85.140 C 89.529 81.436, 90.885 80, 93.500 80 C 96.123 80, 97.470 81.436, 98.364 85.183 C 98.717 86.659, 99.925 88.159, 101.050 88.516 C 103.258 89.217, 106 87.540, 106 85.488 C 106 84.792, 106.824 83.204, 107.831 81.960 C 110.461 78.713, 114.654 79.886, 115.767 84.180 C 117.398 90.475, 122.594 90.506, 124.220 84.231 C 125.650 78.712, 132.350 78.712, 133.780 84.231 C 135.406 90.506, 140.602 90.475, 142.233 84.180 C 143.346 79.886, 147.539 78.713, 150.169 81.960 C 151.176 83.204, 152 84.792, 152 85.488 C 152 87.540, 154.742 89.217, 156.950 88.516 C 158.075 88.159, 159.283 86.659, 159.636 85.183 C 160.530 81.436, 161.877 80, 164.500 80 C 167.123 80, 168.470 81.436, 169.364 85.183 C 170.516 90.010, 176.493 89.978, 177.647 85.140 C 178.529 81.436, 179.885 80, 182.500 80 C 185.123 80, 186.470 81.436, 187.364 85.183 C 188.097 88.254, 191.404 89.739, 193.548 87.960 C 194.577 87.106, 195 84.607, 195 79.378 L 195 72 129 72 L 63 72 63 79.378 M 71.753 93.414 L 68.005 95.500 68.003 120.750 L 68 146 80 146 L 92 146 92 119.525 L 92 93.050 89.435 94.025 C 85.588 95.487, 82.091 95.209, 78.618 93.164 C 75.566 91.366, 75.421 91.371, 71.753 93.414 M 108.139 93.033 C 105.565 95.178, 101.580 95.551, 97.565 94.025 L 95 93.050 95 106.104 L 95 119.159 98.250 118.457 C 107.147 116.537, 114.903 109.433, 117.444 100.878 C 119.319 94.563, 119.305 95, 117.635 95 C 116.884 95, 115.126 94.100, 113.727 93 C 110.683 90.606, 111.056 90.604, 108.139 93.033 M 124.750 93.773 C 122.449 95.345, 120.996 97.140, 120.990 98.418 C 120.972 102.244, 116.361 110.458, 112.046 114.347 C 108.223 117.794, 105.713 119.214, 99.646 121.361 C 98.092 121.911, 99.613 123.965, 109.008 134.009 L 120.225 146 129 146 L 137.775 146 148.992 134.009 C 158.387 123.965, 159.908 121.911, 158.354 121.361 C 152.287 119.214, 149.777 117.794, 145.954 114.347 C 141.607 110.429, 137.027 102.237, 137.010 98.349 C 137.002 96.577, 132.204 92.397, 129 91.372 C 128.725 91.284, 126.813 92.364, 124.750 93.773 M 144.139 93.033 C 142.841 94.115, 141.153 95, 140.389 95 C 138.692 95, 138.679 94.558, 140.556 100.878 C 143.097 109.433, 150.853 116.537, 159.750 118.457 L 163 119.159 163 106.104 L 163 93.050 160.435 94.025 C 156.416 95.553, 152.496 95.178, 149.727 93 C 146.683 90.606, 147.056 90.604, 144.139 93.033 M 179.331 93.121 C 176.193 95.190, 172.454 95.503, 168.565 94.025 L 166 93.050 166 119.525 L 166 146 178 146 L 190 146 189.992 120.750 L 189.984 95.500 186.072 93.377 C 182.229 91.291, 182.112 91.287, 179.331 93.121 M 73.240 96.756 C 71.033 98.222, 71 98.571, 71 120.122 L 71 142 80 142 L 89 142 89 120.167 L 89 98.333 84.579 98.333 C 82.147 98.333, 79.105 97.644, 77.819 96.801 C 75.744 95.441, 75.228 95.436, 73.240 96.756 M 180.173 96.801 C 178.904 97.644, 175.871 98.333, 173.433 98.333 L 169 98.333 169 120.167 L 169 142 178 142 L 187 142 187 120.115 C 187 98.495, 186.973 98.212, 184.740 96.749 C 182.739 95.438, 182.217 95.444, 180.173 96.801 M 107 97.574 C 105.075 98.309, 102.263 98.669, 100.750 98.375 L 98 97.841 98 106.488 C 98 114.995, 98.036 115.124, 100.250 114.436 C 105.481 112.812, 111.116 107.361, 113.526 101.591 C 114.854 98.413, 114.908 97.557, 113.824 96.870 C 112.174 95.824, 111.369 95.907, 107 97.574 M 125.655 97.829 C 124.745 98.835, 123.990 100.297, 123.978 101.079 C 123.893 106.578, 115.291 117.807, 108.568 121.195 C 106.331 122.323, 104.298 123.430, 104.052 123.654 C 103.806 123.879, 107.621 128.099, 112.531 133.031 L 121.458 142 129 142 L 136.542 142 145.469 133.031 C 150.379 128.099, 154.194 123.879, 153.948 123.654 C 153.702 123.430, 151.669 122.323, 149.432 121.195 C 142.600 117.752, 134.100 106.560, 134.022 100.905 C 133.995 98.941, 130.880 96, 128.826 96 C 127.992 96, 126.565 96.823, 125.655 97.829 M 144.176 96.870 C 143.092 97.557, 143.146 98.413, 144.474 101.591 C 146.884 107.361, 152.519 112.812, 157.750 114.436 C 159.964 115.124, 160 114.996, 160 106.459 L 160 97.783 157.540 98.401 C 156.187 98.740, 153.150 98.345, 150.790 97.524 C 145.769 95.774, 145.886 95.786, 144.176 96.870 M 95 134.773 L 95 146 105.677 146 L 116.355 146 107.982 137.250 C 103.378 132.438, 98.573 127.385, 97.305 126.023 L 95 123.545 95 134.773 M 152.174 135.018 L 141.847 146 152.424 146 L 163 146 163 135 C 163 128.950, 162.887 124.008, 162.750 124.018 C 162.613 124.028, 157.853 128.978, 152.174 135.018 M 98 137 L 98 142 103.212 142 L 108.425 142 103.500 137 C 100.791 134.250, 98.446 132, 98.288 132 C 98.129 132, 98 134.250, 98 137 M 154.500 137 L 149.575 142 154.788 142 L 160 142 160 137 C 160 134.250, 159.871 132, 159.712 132 C 159.554 132, 157.209 134.250, 154.500 137" stroke="none" fill="#0c0c0c" fill-rule="evenodd"/><path d="M 127.778 16.750 L 127.500 30.500 91.751 48.500 L 56.002 66.500 56.016 76.500 C 56.031 87.705, 56.968 90.493, 61.728 93.498 L 64.899 95.500 65.199 122 L 65.500 148.500 129 148.500 L 192.500 148.500 192.801 122 L 193.101 95.500 196.272 93.498 C 201.032 90.493, 201.969 87.705, 201.984 76.500 L 201.998 66.500 166.249 48.500 C 130.940 30.721, 130.496 30.460, 130.187 27.250 L 129.873 24 135.687 23.978 C 145.829 23.940, 153.514 18.691, 156.109 10.030 C 158.165 3.168, 157.829 3, 142.060 3 L 128.056 3 127.778 16.750 M 130.667 6.667 C 130.300 7.033, 130 10.459, 130 14.280 L 130 21.226 136.968 20.832 C 146.102 20.316, 151.801 16.167, 153.563 8.750 L 154.217 6 142.775 6 C 136.482 6, 131.033 6.300, 130.667 6.667 M 117.110 49.853 C 110.999 58.023, 106 64.998, 106 65.353 C 106 65.709, 116.350 66, 129 66 C 141.650 66, 152 65.709, 152 65.353 C 152 64.257, 129.830 35, 129 35 C 128.571 35, 123.220 41.684, 117.110 49.853 M 93.750 50.610 C 77.938 58.528, 65 65.230, 65 65.503 C 65 65.777, 73.224 66, 83.276 66 L 101.553 66 112.407 51.464 C 118.377 43.469, 123.090 36.767, 122.881 36.571 C 122.671 36.374, 109.563 42.692, 93.750 50.610 M 135 36.636 C 135 36.989, 139.826 43.740, 145.724 51.639 L 156.447 66 174.724 66 C 184.776 66, 193 65.777, 193 65.503 C 193 65.230, 179.950 58.479, 164 50.500 C 148.050 42.521, 135 36.282, 135 36.636 M 59 77.865 C 59 88.478, 60.848 92, 66.418 92 C 69.986 92, 72.253 90.095, 73.929 85.688 C 75.050 82.739, 77 82.864, 77 85.885 C 77 88.599, 81.249 92, 84.640 92 C 87.913 92, 91.554 88.855, 92.164 85.500 C 92.623 82.972, 94.387 83.019, 94.850 85.571 C 95.461 88.941, 99.110 92, 102.519 92 C 105.980 92, 108.271 90.048, 109.929 85.688 C 111.079 82.661, 113 82.893, 113 86.059 C 113 88.877, 116.563 92, 119.777 92 C 123.372 92, 126.778 89.581, 127.182 86.741 C 127.595 83.831, 130.405 83.831, 130.818 86.741 C 131.222 89.581, 134.628 92, 138.223 92 C 141.437 92, 145 88.877, 145 86.059 C 145 82.893, 146.921 82.661, 148.071 85.688 C 149.729 90.048, 152.020 92, 155.481 92 C 158.917 92, 162.539 88.936, 163.164 85.500 C 163.364 84.400, 163.965 83.500, 164.500 83.500 C 165.035 83.500, 165.636 84.400, 165.836 85.500 C 166.459 88.926, 170.083 92, 173.500 92 C 176.903 92, 181 88.583, 181 85.745 C 181 82.841, 182.975 82.805, 184.071 85.688 C 185.747 90.095, 188.014 92, 191.582 92 C 197.152 92, 199 88.478, 199 77.865 L 199 69 129 69 L 59 69 59 77.865 M 71.753 93.414 L 68.005 95.500 68.003 120.750 L 68 146 80 146 L 92 146 92 119.525 L 92 93.050 89.435 94.025 C 85.588 95.487, 82.091 95.209, 78.618 93.164 C 75.566 91.366, 75.421 91.371, 71.753 93.414 M 108.139 93.033 C 105.565 95.178, 101.580 95.551, 97.565 94.025 L 95 93.050 95 106.104 L 95 119.159 98.250 118.457 C 107.147 116.537, 114.903 109.433, 117.444 100.878 C 119.319 94.563, 119.305 95, 117.635 95 C 116.884 95, 115.126 94.100, 113.727 93 C 110.683 90.606, 111.056 90.604, 108.139 93.033 M 124.750 93.773 C 122.449 95.345, 120.996 97.140, 120.990 98.418 C 120.972 102.244, 116.361 110.458, 112.046 114.347 C 108.223 117.794, 105.713 119.214, 99.646 121.361 C 98.092 121.911, 99.613 123.965, 109.008 134.009 L 120.225 146 129 146 L 137.775 146 148.992 134.009 C 158.387 123.965, 159.908 121.911, 158.354 121.361 C 152.287 119.214, 149.777 117.794, 145.954 114.347 C 141.607 110.429, 137.027 102.237, 137.010 98.349 C 137.002 96.577, 132.204 92.397, 129 91.372 C 128.725 91.284, 126.813 92.364, 124.750 93.773 M 144.139 93.033 C 142.841 94.115, 141.153 95, 140.389 95 C 138.692 95, 138.679 94.558, 140.556 100.878 C 143.097 109.433, 150.853 116.537, 159.750 118.457 L 163 119.159 163 106.104 L 163 93.050 160.435 94.025 C 156.416 95.553, 152.496 95.178, 149.727 93 C 146.683 90.606, 147.056 90.604, 144.139 93.033 M 179.331 93.121 C 176.193 95.190, 172.454 95.503, 168.565 94.025 L 166 93.050 166 119.525 L 166 146 178 146 L 190 146 189.992 120.750 L 189.984 95.500 186.072 93.377 C 182.229 91.291, 182.112 91.287, 179.331 93.121 M 0.298 107.250 C 2.181 139.433, 19.030 172.342, 44.629 193.835 C 60.238 206.941, 76.245 215.205, 96.779 220.759 C 105.826 223.206, 107.956 223.389, 127.500 223.389 C 147.044 223.389, 149.174 223.206, 158.221 220.759 C 192.162 211.579, 218.273 192.487, 236.419 163.584 C 244.771 150.281, 252.083 130.653, 253.648 117.334 C 253.997 114.370, 254.669 111.705, 255.141 111.413 C 255.613 111.121, 256 107.576, 256 103.535 C 256 96.870, 255.828 96.232, 254.144 96.673 C 252.579 97.082, 252.191 98.528, 251.668 105.902 C 247.910 158.836, 210.494 203.423, 158.227 217.252 C 147.078 220.201, 145.564 220.354, 127.500 220.354 C 109.436 220.354, 107.922 220.201, 96.773 217.252 C 44.470 203.414, 7.090 158.840, 3.327 105.823 C 2.837 98.923, 2.373 97, 1.200 97 C -0.076 97, -0.211 98.536, 0.298 107.250 M 0.343 104.500 C 0.346 108.900, 0.522 110.576, 0.733 108.224 C 0.945 105.872, 0.942 102.272, 0.727 100.224 C 0.512 98.176, 0.339 100.100, 0.343 104.500 M 95 134.773 L 95 146 105.677 146 L 116.355 146 107.982 137.250 C 103.378 132.438, 98.573 127.385, 97.305 126.023 L 95 123.545 95 134.773 M 152.174 135.018 L 141.847 146 152.424 146 L 163 146 163 135 C 163 128.950, 162.887 124.008, 162.750 124.018 C 162.613 124.028, 157.853 128.978, 152.174 135.018" stroke="none" fill="#ededed" fill-rule="evenodd"/></svg>