<svg xmlns="http://www.w3.org/2000/svg" width="255" height="156" viewBox="0 0 255 156" version="1.1"><path d="M 40 1.346 C 40 2.996, 77.505 43.378, 79.434 43.805 C 83.652 44.739, 80.306 40.166, 64.053 22.781 L 46.026 3.500 71.717 3.233 L 97.407 2.965 102.983 8.483 C 106.049 11.517, 108.882 14, 109.279 14 C 111.520 14, 109.317 9.757, 104.719 5.216 L 99.437 0 69.719 0 C 45.475 0, 40 0.248, 40 1.346 M 150.216 5.281 C 145.646 9.908, 143.537 14, 145.721 14 C 146.118 14, 148.951 11.517, 152.017 8.483 L 157.593 2.965 183.283 3.233 L 208.974 3.500 190.947 22.781 C 174.717 40.141, 171.343 44.748, 175.549 43.805 C 177.507 43.367, 215 3.057, 215 1.391 C 215 0.234, 209.989 0, 185.216 0 L 155.432 0 150.216 5.281 M 59.142 7.786 C 58.514 7.995, 58 8.634, 58 9.206 C 58 9.778, 67.471 20.057, 79.046 32.048 L 100.093 53.851 100.338 62.175 C 100.617 71.665, 102.450 76.155, 108.502 82.184 C 113.764 87.424, 118.381 89.355, 126.765 89.818 C 133.077 90.167, 134.740 89.873, 139.447 87.570 C 149.902 82.455, 155.434 73.259, 155.475 60.926 L 155.500 53.353 176 32.139 C 187.275 20.472, 196.635 10.324, 196.799 9.589 C 196.964 8.853, 196.514 8.053, 195.799 7.809 C 195.085 7.566, 186.328 7.559, 176.340 7.793 L 158.181 8.219 145.931 20.610 L 133.682 33 127.605 33 L 121.528 33 109.014 20.591 L 96.500 8.182 78.392 7.794 C 68.433 7.580, 59.771 7.576, 59.142 7.786 M 83.674 30.500 C 93.478 40.675, 101.725 48.982, 102 48.962 C 102.275 48.941, 103.735 47.139, 105.244 44.956 C 106.754 42.774, 109.774 39.754, 111.956 38.244 C 114.139 36.735, 115.941 35.164, 115.962 34.753 C 115.983 34.343, 111.216 29.055, 105.369 23.003 L 94.739 12 80.293 12 L 65.848 12 83.674 30.500 M 149.582 23.241 C 143.762 29.424, 139 34.722, 139 35.014 C 139 35.306, 140.607 36.411, 142.571 37.468 C 144.535 38.526, 147.540 41.216, 149.249 43.446 C 150.958 45.676, 152.650 47.851, 153.009 48.281 C 153.368 48.710, 161.657 40.723, 171.430 30.531 L 189.199 12 174.681 12 L 160.163 12 149.582 23.241 M 0.298 39.250 C 2.181 71.433, 19.030 104.342, 44.629 125.835 C 60.238 138.941, 76.245 147.205, 96.779 152.759 C 105.826 155.206, 107.956 155.389, 127.500 155.389 C 147.044 155.389, 149.174 155.206, 158.221 152.759 C 192.162 143.579, 218.273 124.487, 236.419 95.584 C 244.771 82.281, 252.083 62.653, 253.648 49.334 C 253.997 46.370, 254.669 43.705, 255.141 43.413 C 255.613 43.121, 256 39.576, 256 35.535 C 256 28.870, 255.828 28.232, 254.144 28.673 C 252.579 29.082, 252.191 30.528, 251.668 37.902 C 247.910 90.836, 210.494 135.423, 158.227 149.252 C 147.078 152.201, 145.564 152.354, 127.500 152.354 C 109.436 152.354, 107.922 152.201, 96.773 149.252 C 44.470 135.414, 7.090 90.840, 3.327 37.823 C 2.837 30.923, 2.373 29, 1.200 29 C -0.076 29, -0.211 30.536, 0.298 39.250 M 0.343 36.500 C 0.346 40.900, 0.522 42.576, 0.733 40.224 C 0.945 37.872, 0.942 34.272, 0.727 32.224 C 0.512 30.176, 0.339 32.100, 0.343 36.500 M 125.723 50.773 L 123.992 57 118.246 57.032 L 112.500 57.063 115 58.961 C 116.375 60.004, 118.376 61.512, 119.448 62.310 C 121.310 63.699, 121.327 64.006, 119.839 69.353 C 118.191 75.276, 118.268 75.316, 123.594 71.321 C 127.410 68.459, 127.590 68.459, 131.406 71.321 C 136.905 75.446, 136.968 75.414, 135.252 69.382 C 133.711 63.963, 133.724 63.674, 135.573 62.295 C 136.633 61.505, 138.625 60.004, 140 58.961 L 142.500 57.063 136.837 57.032 L 131.174 57 129.314 50.773 L 127.454 44.545 125.723 50.773" stroke="none" fill="#fffcfc" fill-rule="evenodd"/><path d="" stroke="none" fill="#fcfcfc" fill-rule="evenodd"/></svg>