<svg xmlns="http://www.w3.org/2000/svg" width="255" height="170" viewBox="0 0 255 170" version="1.1"><path d="M 82.750 17.748 C 57.058 27.629, 37 35.878, 37 36.563 C 37 37.233, 42.288 39.709, 48.750 42.064 C 55.213 44.419, 65 48.022, 70.500 50.070 L 80.500 53.793 80.796 60.397 C 81.022 65.461, 81.440 67, 82.588 67 C 83.812 67, 84.031 65.599, 83.792 59.291 L 83.500 51.582 65 44.806 C 54.825 41.080, 45.651 37.664, 44.614 37.215 C 43.209 36.607, 53.683 32.219, 85.614 20.038 C 109.201 11.039, 129.044 3.483, 129.710 3.247 C 131.043 2.773, 217.002 34.925, 216.997 35.896 C 216.995 36.228, 208.557 39.650, 198.247 43.500 L 179.500 50.500 179.500 58.917 C 179.500 64.761, 179.882 67.461, 180.750 67.750 C 181.678 68.059, 182.005 66.149, 182.018 60.333 L 182.036 52.500 202.768 44.934 C 216.440 39.944, 223.500 36.884, 223.500 35.949 C 223.500 34.431, 134.231 0.029, 130.500 0.109 C 129.400 0.132, 107.912 8.070, 82.750 17.748 M 95.500 21.033 C 56.889 35.735, 56.543 35.877, 57.294 36.627 C 57.597 36.931, 64.968 39.755, 73.673 42.905 L 89.500 48.630 90 61.206 C 90.570 75.532, 90.616 75.615, 100.837 80.559 C 115.498 87.651, 145.046 87.939, 160.419 81.139 L 164.885 79.163 165.193 82.231 C 165.362 83.918, 166.175 85.666, 167 86.115 C 172.687 89.211, 179.159 91.359, 183 91.424 C 187.349 91.497, 187.500 91.399, 187.500 88.504 C 187.500 85.896, 186.983 85.338, 183.500 84.191 C 180.016 83.043, 175.476 82.252, 171.250 82.058 C 169.324 81.969, 169.721 75.924, 171.750 74.444 C 173.206 73.382, 173.584 71.037, 174 60.467 L 174.500 47.766 190.500 41.975 C 205.979 36.373, 206.402 36.145, 203.500 34.995 C 195.731 31.915, 130.604 8.005, 130.087 8.043 C 129.764 8.067, 114.200 13.913, 95.500 21.033 M 97.821 23.325 C 80.397 30.021, 65.887 35.760, 65.577 36.077 C 65.122 36.542, 105.487 51.508, 126.242 58.569 L 130.984 60.183 145.525 54.957 C 153.522 52.083, 159.925 49.591, 159.753 49.420 C 159.582 49.248, 152.704 46.694, 144.471 43.743 C 132.259 39.366, 129.444 37.998, 129.197 36.316 C 129.031 35.182, 129.481 34.037, 130.197 33.770 C 130.914 33.504, 139.375 36.119, 149 39.582 C 158.625 43.045, 167.388 45.905, 168.474 45.939 C 170.643 46.006, 197.012 36.817, 196.981 36.005 C 196.962 35.521, 132.844 11.685, 130.593 11.325 C 129.992 11.229, 115.244 16.629, 97.821 23.325 M 0.298 53.250 C 2.181 85.433, 19.030 118.342, 44.629 139.835 C 60.238 152.941, 76.245 161.205, 96.779 166.759 C 105.826 169.206, 107.956 169.389, 127.500 169.389 C 147.044 169.389, 149.174 169.206, 158.221 166.759 C 192.162 157.579, 218.273 138.487, 236.419 109.584 C 244.771 96.281, 252.083 76.653, 253.648 63.334 C 253.997 60.370, 254.669 57.705, 255.141 57.413 C 255.613 57.121, 256 53.576, 256 49.535 C 256 42.870, 255.828 42.232, 254.144 42.673 C 252.579 43.082, 252.191 44.528, 251.668 51.902 C 247.910 104.836, 210.494 149.423, 158.227 163.252 C 147.078 166.201, 145.564 166.354, 127.500 166.354 C 109.436 166.354, 107.922 166.201, 96.773 163.252 C 44.470 149.414, 7.090 104.840, 3.327 51.823 C 2.837 44.923, 2.373 43, 1.200 43 C -0.076 43, -0.211 44.536, 0.298 53.250 M 0.343 50.500 C 0.346 54.900, 0.522 56.576, 0.733 54.224 C 0.945 51.872, 0.942 48.272, 0.727 46.224 C 0.512 44.176, 0.339 46.100, 0.343 50.500 M 170.378 60 C 170.378 66.325, 170.541 68.912, 170.739 65.750 C 170.937 62.587, 170.937 57.412, 170.739 54.250 C 170.541 51.087, 170.378 53.675, 170.378 60 M 93 60.719 C 93 70.780, 93.179 71.815, 95.250 73.709 C 106.492 83.988, 141.217 86.266, 160.522 77.991 L 165 76.071 165 63.579 L 165 51.086 155.250 54.666 C 149.887 56.634, 142.087 59.386, 137.916 60.780 L 130.332 63.316 112.916 57.029 C 103.337 53.571, 94.938 50.527, 94.250 50.264 C 93.297 49.900, 93 52.384, 93 60.719" stroke="none" fill="#fffcfc" fill-rule="evenodd"/><path d="" stroke="none" fill="#fcfcfc" fill-rule="evenodd"/></svg>