<?xml version="1.0" encoding="utf-8"?>
<!-- Generator: Adobe Illustrator 24.2.1, SVG Export Plug-In . SVG Version: 6.00 Build 0)  -->
<svg version="1.1" id="Layer_1" xmlns="http://www.w3.org/2000/svg" xmlns:xlink="http://www.w3.org/1999/xlink" x="0px" y="0px"
	 viewBox="0 0 1230.3 118.1" style="enable-background:new 0 0 1230.3 118.1;" xml:space="preserve">
<style type="text/css">
	.st0{fill:#1A1A1A;}
	.st1{fill:#323435;}
</style>
<path class="st0" d="M741,90.2H374.8L395.3,80l20.8,1.8l21.2-9.8c0,0,21.5,0.9,31.8,1.3c0.5,0,1-0.2,1.4-0.4
	c8.6-4.2,17.2-8.5,25.8-12.7c0.7-0.4,1.4-0.5,2.2-0.3c13.4,2.4,26.9,4.8,40.3,7.3c8.5,1.5,17,3.1,25.5,4.5c1.3,0.2,2.7-0.1,4-0.4
	c7.7-1.3,15.4-2.8,23.2-4c1.5-0.2,3.2,0.3,4.8,0.5c4.9,0.8,9.9,1.7,14.8,2.5c0.3,0.1,0.7,0,1.1-0.1c10.1-3.9,31.3-12,31.3-12
	s18.4,4.1,27.5,6.1c0.5,0.1,1,0.1,1.5-0.1c4.2-1.1,13.8-3.7,13.8-3.7s23,6.5,34,9.6c0.6,0.2,1.2,0.2,1.8,0.1
	c4.5-0.7,13.6-2.1,13.6-2.1l5.7,8.9C741.2,77,741,90.2,741,90.2L741,90.2z"/>
<g>
	<path class="st1" d="M872.6,87H528.2l19.3-9.5l19.6,1.6l19.9-9.2c0,0,20.2,0.8,29.9,1.3c0.4,0,0.9-0.1,1.3-0.3
		c8.1-4,16.2-8,24.3-12c0.7-0.3,1.3-0.4,2-0.3c12.6,2.3,25.3,4.6,37.9,6.8c8,1.4,16,2.9,24,4.3c1.2,0.2,2.5-0.1,3.8-0.4
		c7.3-1.3,14.5-2.6,21.8-3.8c1.4-0.2,3,0.3,4.5,0.5c4.7,0.8,9.3,1.6,14,2.3c0.3,0.1,0.7,0,1-0.1c9.5-3.7,29.4-11.3,29.4-11.3
		s17.3,3.8,25.8,5.7c0.5,0.1,1,0.1,1.4-0.1c4-1,12.9-3.4,12.9-3.4s21.6,6.1,31.9,9c0.5,0.1,1.1,0.2,1.7,0.1c4.3-0.6,12.8-2,12.8-2
		l5.4,8.4L872.6,87L872.6,87z"/>
	<path class="st1" d="M8,99.9l1215.8-35.6V107H8C8,107,7,98.9,8,99.9z"/>
</g>
</svg>
